<?xml version="1.0" encoding="UTF-8"?>
<svg xmlns="http://www.w3.org/2000/svg" xmlns:xlink="http://www.w3.org/1999/xlink" width="3720" height="2592" viewBox="0 0 3720 2592">
<path fill-rule="nonzero" fill="rgb(99.609375%, 99.609375%, 99.609375%)" fill-opacity="1" d="M 0 0 L 0 2592 C 1240 2592 2480 2592 3720 2592 C 3720 1728 3720 864 3720 0 L 0 0 "/>
<path fill-rule="nonzero" fill="rgb(0%, 0%, 0%)" fill-opacity="1" d="M 2228.691406 1060.359375 C 2225.179688 1063.089844 2221.648438 1065.839844 2218.109375 1068.609375 C 2214.078125 1066.230469 2210.058594 1063.859375 2206.050781 1061.511719 L 2206.019531 1061.519531 L 2203.648438 1463.421875 C 2207.460938 1461 2211.261719 1458.578125 2215.050781 1456.148438 L 2226.351562 1464.878906 L 2228.710938 1060.359375 Z M 2779.070312 1059.460938 C 2756.128906 1077.820312 2738.96875 1094.980469 2727.578125 1110.949219 C 2732.21875 1176.441406 2734.46875 1226.25 2734.351562 1260.398438 C 2734.628906 1291.101562 2733.03125 1336.851562 2729.558594 1397.660156 C 2729.550781 1397.671875 2729.539062 1397.679688 2729.53125 1397.691406 C 2729.191406 1404.011719 2728.808594 1410.488281 2728.410156 1417.128906 C 2730.449219 1420.109375 2732.71875 1423.179688 2735.25 1426.320312 C 2745.699219 1439.289062 2760.359375 1453.609375 2779.230469 1469.261719 C 2793.671875 1402.53125 2801.191406 1333.230469 2801 1262.160156 C 2800.820312 1192.609375 2793.269531 1124.800781 2779.089844 1059.460938 Z M 2476.410156 871.058594 C 2478.148438 874.558594 2479.910156 878.101562 2481.679688 881.679688 C 2476.550781 884.871094 2471.378906 888.109375 2466.171875 891.410156 C 2521.828125 924.761719 2575.148438 958.75 2619.488281 998.320312 C 2661.511719 1035.828125 2695.648438 1078.53125 2728.410156 1122.929688 C 2728.140625 1119 2727.859375 1115 2727.578125 1110.949219 C 2730.640625 1106.660156 2734.121094 1102.289062 2738.011719 1097.820312 C 2707.410156 1056.96875 2674.488281 1016.980469 2634.609375 981.378906 C 2588.300781 940.050781 2532.808594 904.828125 2476.429688 871.058594 Z M 1859.339844 523.578125 L 1858.101562 547.960938 C 1854.628906 635.851562 1843.699219 734.351562 1825.320312 843.46875 C 1939.660156 906.679688 2070.589844 981.71875 2218.109375 1068.609375 C 2315.101562 992.851562 2402.960938 930.539062 2481.679688 881.679688 C 2430.808594 779.050781 2393.441406 708.828125 2369.609375 671.039062 C 2345.480469 630.828125 2310.890625 584.039062 2265.851562 530.671875 C 2177.109375 518.320312 2110.121094 512.019531 2064.871094 511.761719 C 2019.78125 510.449219 1951.269531 514.390625 1859.339844 523.578125 M 2314.851562 427.851562 L 2253.050781 528.910156 C 2257.269531 529.480469 2261.539062 530.070312 2265.851562 530.671875 C 2268.339844 533.609375 2270.789062 536.539062 2273.21875 539.441406 L 2334.429688 439.339844 C 2327.96875 435.429688 2321.449219 431.601562 2314.871094 427.851562 Z M 1544.941406 408.609375 C 1544.160156 411.121094 1543.359375 413.558594 1542.539062 415.929688 L 1540.601562 422 C 1535.460938 424.191406 1530.429688 426.359375 1525.5 428.511719 C 1590.359375 438.660156 1653.46875 450.050781 1710.53125 469.75 C 1763.339844 487.988281 1811.191406 513.421875 1858.460938 540.78125 L 1859.339844 523.578125 C 1863.578125 523.160156 1867.769531 522.738281 1871.910156 522.339844 C 1823.558594 494.269531 1773.480469 467.46875 1717.941406 448.289062 C 1663.789062 429.589844 1604.640625 418.21875 1544.941406 408.609375 Z M 1556.820312 343.359375 C 1419 385.359375 1294.320312 457.429688 1190.398438 551.898438 C 1206.71875 562 1226.441406 569.75 1249.558594 575.171875 L 1249.558594 575.179688 C 1249.558594 575.171875 1249.558594 575.171875 1249.558594 575.171875 C 1254.160156 576.25 1258.878906 577.230469 1263.738281 578.121094 C 1267.800781 575.398438 1271.789062 572.730469 1275.71875 570.109375 C 1275.71875 570.109375 1275.71875 570.109375 1275.71875 570.101562 L 1275.730469 570.109375 C 1338.609375 528.140625 1384.351562 499.261719 1412.949219 483.46875 C 1444.078125 465.550781 1486.628906 445.058594 1540.601562 422 L 1542.539062 415.929688 C 1549.210938 396.808594 1553.980469 372.621094 1556.828125 343.359375 Z M 1275.710938 570.109375 C 1271.789062 572.730469 1267.800781 575.398438 1263.738281 578.121094 C 1258.890625 577.230469 1254.160156 576.25 1249.570312 575.179688 C 1227.128906 635.160156 1206.640625 695.328125 1196.101562 753.578125 C 1185.820312 810.339844 1185.011719 865.058594 1186.460938 918.691406 C 1188.488281 915.78125 1190.558594 912.859375 1192.640625 909.898438 C 1198.140625 912.5 1203.640625 915.078125 1209.140625 917.640625 C 1207.730469 864.808594 1208.570312 812.121094 1218.441406 757.621094 C 1229.390625 697.179688 1251.480469 634.21875 1275.730469 570.109375 Z M 1827.441406 830.679688 C 1682.519531 913.558594 1544.230469 992.671875 1478.410156 1030.671875 C 1482.488281 1032.191406 1486.570312 1033.710938 1490.648438 1035.21875 L 1489.980469 1050.199219 C 1555.769531 1012.230469 1693.640625 933.351562 1838.25 850.640625 C 1833.929688 848.230469 1829.609375 845.839844 1825.320312 843.46875 C 1826.039062 839.191406 1826.75 834.929688 1827.449219 830.679688 Z M 1192.640625 909.898438 C 1130.949219 997.46875 1089.539062 1060.480469 1068.410156 1098.929688 C 1045.558594 1138.320312 1020.980469 1192.089844 994.6875 1260.210938 C 1030.71875 1350.769531 1059.921875 1415.5 1082.289062 1454.390625 C 1103.878906 1494.421875 1140.609375 1548.078125 1192.488281 1615.363281 C 1296.109375 1567.851562 1394.199219 1524.441406 1486.75 1485.128906 C 1481.519531 1339.890625 1482.289062 1201.898438 1489.039062 1071.160156 L 1490.648438 1035.21875 C 1390.53125 998.199219 1291.191406 956.429688 1192.640625 909.898438 Z M 999.675781 1247.390625 L 875.074219 1249.101562 C 874.984375 1255.128906 874.945312 1261.171875 874.960938 1267.230469 C 874.964844 1268.75 874.972656 1270.28125 874.984375 1271.808594 L 998.636719 1270.109375 C 997.332031 1266.839844 996.015625 1263.539062 994.6875 1260.210938 C 996.359375 1255.878906 998.023438 1251.609375 999.683594 1247.390625 Z M 1185.628906 1606.4375 C 1186.769531 1671.589844 1189.269531 1736.574219 1200.378906 1795.753906 C 1210.890625 1851.796875 1229.089844 1902.414062 1248.601562 1951.335938 C 1254.589844 1950.082031 1260.089844 1949.121094 1265.089844 1948.464844 L 1274.261719 1954.300781 C 1253.160156 1902.101562 1233.621094 1849.789062 1222.691406 1791.5625 C 1212.050781 1734.875 1209.519531 1672.34375 1208.371094 1608.097656 C 1203.089844 1610.507812 1197.789062 1612.929688 1192.488281 1615.363281 C 1190.179688 1612.359375 1187.890625 1609.386719 1185.640625 1606.4375 Z M 1486.210938 1469.070312 L 1486.210938 1469.078125 C 1486.378906 1474.421875 1486.558594 1479.769531 1486.75 1485.128906 C 1483.28125 1486.609375 1479.789062 1488.089844 1476.300781 1489.578125 L 1825.671875 1691.71875 C 1824.570312 1687.007812 1823.429688 1682.390625 1822.269531 1677.875 C 1826.710938 1675.65625 1831.128906 1673.433594 1835.550781 1671.210938 L 1486.21875 1469.070312 Z M 2215.050781 1456.148438 L 2239.21875 1474.828125 C 2329.589844 1545.148438 2407.808594 1602.542969 2473.871094 1646.996094 C 2419.820312 1774.429688 2374.050781 1861.136719 2336.539062 1907.121094 C 2320.621094 1929.464844 2297.488281 1959.671875 2267.160156 1997.746094 C 2174.109375 2008.910156 2104.980469 2014.488281 2059.769531 2014.472656 C 2014.328125 2015.453125 1947.480469 2011.328125 1859.230469 2002.09375 C 1854.75 1864.394531 1842.429688 1756.320312 1822.269531 1677.875 C 1963.769531 1607.109375 2094.699219 1533.199219 2215.050781 1456.148438 M 1858.621094 1985.328125 C 1815.578125 2005.53125 1745.261719 2035.785156 1682.199219 2056.523438 C 1626.109375 2074.96875 1575.640625 2085.9375 1525.929688 2095.457031 C 1529.679688 2097.308594 1533.480469 2099.1875 1537.351562 2101.089844 L 1541.820312 2115.503906 C 1588.289062 2106.394531 1636.339844 2095.507812 1689.289062 2078.089844 C 1755.941406 2056.171875 1830.171875 2023.972656 1873.230469 2003.539062 C 1868.628906 2003.070312 1863.960938 2002.589844 1859.230469 2002.09375 C 1859.039062 1996.457031 1858.839844 1990.867188 1858.640625 1985.328125 Z M 1265.089844 1948.464844 C 1260.078125 1949.121094 1254.578125 1950.082031 1248.589844 1951.339844 C 1230.878906 1955.054688 1208.890625 1961.382812 1182.609375 1970.328125 C 1287.761719 2068.015625 1414.75 2142.480469 1555.410156 2185.59375 C 1551.640625 2155.675781 1547.210938 2132.621094 1542.109375 2116.4375 L 1537.351562 2101.089844 C 1533.480469 2099.1875 1529.679688 2097.308594 1525.941406 2095.457031 L 1525.929688 2095.460938 C 1466.121094 2065.84375 1422.101562 2043.023438 1393.859375 2026.988281 C 1359.890625 2007.894531 1320.441406 1983.933594 1275.519531 1955.097656 L 1274.28125 1954.308594 L 1274.261719 1954.3125 C 1274.261719 1954.304688 1274.261719 1954.304688 1274.261719 1954.300781 Z M 1835.441406 301.671875 C 2367.308594 300.269531 2799.601562 730.300781 2801 1262.160156 C 2802.398438 1794.015625 2372.378906 2226.3125 1840.519531 2227.710938 C 1308.660156 2229.113281 876.359375 1799.089844 874.960938 1267.230469 C 873.558594 735.371094 1303.589844 303.070312 1835.441406 301.671875 Z M 1835.390625 278.960938 C 1290.980469 280.398438 850.824219 722.890625 852.257812 1267.289062 C 853.691406 1811.6875 1296.179688 2251.847656 1840.578125 2250.414062 C 2384.980469 2248.980469 2825.140625 1806.496094 2823.710938 1262.101562 C 2822.269531 717.691406 2379.789062 277.53125 1835.390625 278.960938 Z M 2274.53125 1988.488281 C 2272.121094 1991.523438 2269.660156 1994.605469 2267.160156 1997.746094 C 2262.878906 1998.257812 2258.648438 1998.761719 2254.480469 1999.25 L 2315.550781 2101.148438 C 2322.121094 2097.390625 2328.640625 2093.558594 2335.109375 2089.652344 Z M 2729.511719 1397.71875 C 2687.398438 1448.46875 2645.25 1497.96875 2596.511719 1540.519531 C 2547.890625 1582.949219 2492.46875 1618.671875 2460.730469 1638.105469 C 2465.171875 1641.125 2469.550781 1644.089844 2473.871094 1646.996094 C 2472 1651.410156 2470.140625 1655.777344 2468.289062 1660.09375 C 2499.488281 1641.136719 2559.121094 1603.292969 2611.441406 1557.621094 C 2656.988281 1517.859375 2696.789062 1472.339844 2735.238281 1426.328125 C 2732.71875 1423.179688 2730.449219 1420.109375 2728.410156 1417.128906 C 2728.808594 1410.5 2729.179688 1404.03125 2729.53125 1397.71875 Z M 2729.511719 1397.71875 "/>
</svg>
